<?xml version="1.0" standalone="no"?><svg xmlns="http://www.w3.org/2000/svg" viewBox="0 0 1440 320"><path fill="#a2d9ff" fill-opacity="1" d="M0,160L30,176C60,192,120,224,180,202.7C240,181,300,107,360,74.7C420,43,480,53,540,85.3C600,117,660,171,720,181.3C780,192,840,160,900,128C960,96,1020,64,1080,74.7C1140,85,1200,139,1260,133.3C1320,128,1380,64,1410,32L1440,0L1440,320L1410,320C1380,320,1320,320,1260,320C1200,320,1140,320,1080,320C1020,320,960,320,900,320C840,320,780,320,720,320C660,320,600,320,540,320C480,320,420,320,360,320C300,320,240,320,180,320C120,320,60,320,30,320L0,320Z"></path></svg>