<svg xmlns="http://www.w3.org/2000/svg" version="1.1" xmlns:xlink="http://www.w3.org/1999/xlink" xmlns:svgjs="http://svgjs.com/svgjs" width="1440" height="560" preserveAspectRatio="none" viewBox="0 0 1440 560"><g mask="url(&quot;#SvgjsMask1119&quot;)" fill="none"><rect width="1440" height="560" x="0" y="0" fill="rgba(71, 14, 14, 1)"></rect><path d="M48.865,542.916C70.595,543.081,90.419,532.307,102.513,514.252C116.339,493.612,125.375,467.758,114.003,445.671C101.862,422.09,75.331,408.316,48.865,410.053C24.787,411.634,7.912,431.814,-2.972,453.35C-12.656,472.513,-14.141,494.863,-3.386,513.446C7.35,531.995,27.434,542.753,48.865,542.916" fill="rgba(142, 28, 33, 0.4)" class="triangle-float3"></path><path d="M1302.356,622.325C1338.177,621.58,1377.263,615.863,1395.431,584.982C1413.781,553.791,1402.042,515.473,1383.499,484.397C1365.513,454.253,1337.446,429.911,1302.356,428.994C1265.779,428.038,1232.917,448.931,1213.521,479.956C1192.762,513.162,1181.596,555.772,1202.327,588.996C1222.267,620.953,1264.696,623.108,1302.356,622.325" fill="rgba(142, 28, 33, 0.4)" class="triangle-float1"></path><path d="M333.89780374247715 172.74675819879883L196.17348903574887 130.49664503437197 222.35589465352433 253.67517884233615z" fill="rgba(142, 28, 33, 0.4)" class="triangle-float1"></path><path d="M624.0004831350448 353.14184196917313L647.6765542330603 270.57356964854955 565.1082819124366 246.897498550534 541.4322108144212 329.46577087115764z" fill="rgba(142, 28, 33, 0.4)" class="triangle-float1"></path><path d="M914.0208290912376 383.93949840976364L798.1544511835085 375.8373319912342 790.052284764979 491.7037098989632 905.9186626727081 499.8058763174927z" fill="rgba(142, 28, 33, 0.4)" class="triangle-float3"></path><path d="M1084.497,453.795C1112.686,453.769,1143.953,452.871,1159.526,429.374C1176.369,403.962,1172.157,370.646,1157.219,344.07C1141.948,316.902,1115.651,296.769,1084.497,295.891C1051.855,294.971,1020.336,311.309,1004.309,339.76C988.547,367.74,990.752,403.246,1009.224,429.515C1025.478,452.629,1056.24,453.822,1084.497,453.795" fill="rgba(142, 28, 33, 0.4)" class="triangle-float2"></path><path d="M1133.62 155.42 a148.98 148.98 0 1 0 297.96 0 a148.98 148.98 0 1 0 -297.96 0z" fill="rgba(142, 28, 33, 0.4)" class="triangle-float1"></path><path d="M615.29 149.62 a143.42 143.42 0 1 0 286.84 0 a143.42 143.42 0 1 0 -286.84 0z" fill="rgba(142, 28, 33, 0.4)" class="triangle-float3"></path><path d="M735.1815971004467-25.175264730717643L582.1830964808473-41.25605513513574 566.1023060764292 111.74244548446363 719.1008066960286 127.82323588888171z" fill="rgba(142, 28, 33, 0.4)" class="triangle-float3"></path></g><defs><mask id="SvgjsMask1119"><rect width="1440" height="560" fill="#ffffff"></rect></mask><style>
            @keyframes float1 {
                0%{transform: translate(0, 0)}
                50%{transform: translate(-10px, 0)}
                100%{transform: translate(0, 0)}
            }

            .triangle-float1 {
                animation: float1 5s infinite;
            }

            @keyframes float2 {
                0%{transform: translate(0, 0)}
                50%{transform: translate(-5px, -5px)}
                100%{transform: translate(0, 0)}
            }

            .triangle-float2 {
                animation: float2 4s infinite;
            }

            @keyframes float3 {
                0%{transform: translate(0, 0)}
                50%{transform: translate(0, -10px)}
                100%{transform: translate(0, 0)}
            }

            .triangle-float3 {
                animation: float3 6s infinite;
            }
        </style></defs></svg>